<?xml version="1.0" encoding="UTF-8"?>
<!-- Generator: Adobe Illustrator 27.6.1, SVG Export Plug-In . SVG Version: 6.00 Build 0)  -->
<svg width="86px" height="40px" version="1.1" id="Layer_1" xmlns="http://www.w3.org/2000/svg" xmlns:xlink="http://www.w3.org/1999/xlink" x="0px" y="0px" viewBox="0 0 86 40" style="enable-background:new 0 0 86 40;" xml:space="preserve">
<style type="text/css">
	.st0{fill:#03203D;}
</style>
<g>
	<path class="st0" d="M27.79,19.57c2.03-1.28,2.98-3.48,3.38-6.04c0,0,0-0.01,0-0.01c0.16-1.39,0.17-3.03,0.12-4.12   c-0.02-0.4-0.09-1.19-0.09-1.19c-0.21-2.06-1.49-4.36-3.03-5.56c-1.88-1.46-4.25-1.92-6.5-2.11c-2.66-0.22-8.05,0-9.31,0.06   c-0.15,0.01-0.27,0.13-0.27,0.28v38.37c0,0.17,0.14,0.3,0.31,0.28c0.97-0.1,5.55-0.54,6.71-0.64c0.15-0.01,0.26-0.14,0.26-0.28   V24.28c0-1.38,4.28-1.85,4.27,0.58c-0.01,4.51-0.18,9.14,0.58,13.6c0.01,0.06,0.01,0.04,0.01,0.06c0.03,0.13,0.14,0.22,0.28,0.22   l0.15,0c2.12-0.08,4.23-0.15,6.35-0.2c0.13-0.01,0.22-0.12,0.21-0.24c-0.42-3.93-0.23-7.92-0.23-11.87   c0.17-2.57-0.59-5.42-3.17-6.51c-0.07-0.03-0.11-0.09-0.11-0.16C27.69,19.69,27.72,19.62,27.79,19.57L27.79,19.57z M19.74,17.25   c-0.02,0-0.04,0-0.06,0h-0.04c-0.16,0-0.28-0.13-0.28-0.28V6.57c0-0.16,0.13-0.28,0.28-0.28h0.24c1.01,0,2.18,0.16,2.96,0.87   c0.91,0.83,1.05,2.19,1.04,3.35C23.87,13.29,23.12,17,19.74,17.25z"/>
	<path class="st0" d="M53,0.46h-7.36c-0.04,0-0.04,0.01-0.04,0.01c-0.14,0-0.26,0.1-0.28,0.24c-0.27,1.72-2.04,12.15-2.66,15.61   c-0.03,0.16-0.16,0.24-0.28,0.23c-0.13,0-0.26-0.07-0.28-0.23c-0.62-3.46-2.39-13.89-2.66-15.61c-0.02-0.14-0.14-0.24-0.28-0.24   c0,0,0,0-0.03-0.01h-7.37c-0.15,0.04-0.24,0.2-0.19,0.35c0.71,2.35,4.92,15.97,6.85,22.61c0.18,0.62,0.28,1.27,0.28,1.84v12.9   c0,0.16,0.13,0.28,0.29,0.28c0.72-0.01,2.44-0.04,3.41-0.04h0.02c0.97,0,2.69,0.03,3.41,0.04c0.16,0,0.29-0.12,0.29-0.28v-12.9   c0-0.57,0.09-1.23,0.28-1.84c1.93-6.64,6.14-20.26,6.85-22.61C53.25,0.65,53.16,0.49,53,0.46L53,0.46z"/>
	<path class="st0" d="M73.92,39.21L68.39,0.69c-0.02-0.13-0.14-0.23-0.28-0.23H56.54c-0.14,0-0.25,0.1-0.28,0.23l-5.38,37.42   c-0.03,0.17,0.1,0.33,0.28,0.33l6.73,0.23c0.14,0,0.26-0.1,0.28-0.24l1.04-8.16c0.02-0.13,0.12-0.22,0.25-0.23   c1.36-0.16,4.4-0.15,5.72,0c0.13,0.02,0.23,0.11,0.25,0.23l1.07,8.44c0.02,0.13,0.13,0.23,0.26,0.23l6.87,0.58   C73.81,39.56,73.96,39.39,73.92,39.21L73.92,39.21z M64.25,23.84c-0.06,0-1.15-0.05-1.82-0.05s-2.02,0.05-2.07,0.05   c-0.18,0.02-0.33-0.14-0.3-0.33l1.98-14.88c0.06-0.31,0.5-0.31,0.55,0l1.96,14.88C64.58,23.69,64.44,23.85,64.25,23.84L64.25,23.84   z"/>
</g>
</svg>